:FULLY-SPECIFIED
:FORCE-ALL-JOINTS-BE-3DOF
:DEGREES
917
root 2.80885 16.2234 32.4102 1.91688 10.1545 2.87484
lfemur -14.2188 3.59847 -1.21379
ltibia 32.3999 -0 0
lfoot -12.3263 -35.2456 0.199657
ltoes -1.64713 0 0
rfemur -16.7955 -3.98418 -8.85008
rtibia 38.5474 -0 0
rfoot 8.51064 -16.9131 -0.289017
rtoes -3.09523 0 0
lowerback -0.127062 0.360483 -2.6916
upperback -0.659566 0.468402 -4.80658
thorax -0.636126 0.228723 -3.48729
lowerneck -7.11938 -5.30667 -1.3853
upperneck 4.27656 -7.31539 5.64613
head 2.93491 -3.46901 1.7141
lclavicle 1.83752e-14 1.35174e-14 0
lhumerus -51.9227 -35.808 108.545
lradius 58.285 -0 0
lwrist 13.8752 0 0
lhand 35.6584 18.898 0.182649
lfingers 7.12502 -0 0
lthumb 58.6384 33.4805 0.0278593
rclavicle 1.83752e-14 1.35174e-14 0
rhumerus -59.3233 37.429 -103.991
rradius 116.327 -0 0
rwrist -1.91274 0 0
rhand 0.0221388 -11.2345 -0.268735
rfingers 7.12502 -0 0
rthumb 25.5142 -38.8104 0.0621638
918
root 2.73058 16.1822 32.4503 2.18947 9.19443 3.1963
lfemur -12.671 2.80633 -0.826742
ltibia 29.9221 -0 0
lfoot -13.1981 -35.7809 0.223755
ltoes -2.43651 0 0
rfemur -17.2813 -3.78711 -9.22221
rtibia 38.3829 -0 0
rfoot 7.43821 -16.1018 -0.343465
rtoes -6.9674 0 0
lowerback -0.473298 0.306055 -2.68827
upperback -0.747634 0.41205 -5.1248
thorax -0.53887 0.19669 -3.82802
lowerneck -7.14454 -4.92234 -1.17797
upperneck 4.24487 -6.81741 5.62589
head 2.90292 -3.21897 1.69608
lclavicle 1.83752e-14 1.35174e-14 0
lhumerus -52.2148 -36.0984 108.349
lradius 58.1754 -0 0
lwrist 14.6172 0 0
lhand 36.4377 19.7823 0.223068
lfingers 7.12502 -0 0
lthumb 59.2928 33.5899 0.0336079
rclavicle 1.83752e-14 1.35174e-14 0
rhumerus -60.1452 39.4648 -101.609
rradius 116.133 -0 0
rwrist -2.62868 0 0
rhand 2.86831 -10.6357 -0.445345
rfingers 7.12502 -0 0
rthumb 28.2147 -37.6378 -0.0476581
919
root 2.64976 16.1386 32.4897 2.46078 8.22964 3.5233
lfemur -11.0418 2.05476 -0.491189
ltibia 27.3155 -0 0
lfoot -14.1512 -36.2012 0.236336
ltoes -3.27373 0 0
rfemur -17.8835 -3.65751 -9.57405
rtibia 38.4618 -0 0
rfoot 6.30236 -15.1871 -0.382902
rtoes -11.0396 0 0
lowerback -0.821611 0.228899 -2.69168
upperback -0.833005 0.325824 -5.45258
thorax -0.437196 0.150113 -4.17398
lowerneck -7.17066 -4.51213 -0.953143
upperneck 4.21214 -6.28626 5.60056
head 2.86895 -2.9523 1.67482
lclavicle 1.83752e-14 1.35174e-14 0
lhumerus -52.5178 -36.4417 108.138
lradius 58.0748 -0 0
lwrist 15.4131 0 0
lhand 37.2471 20.7181 0.253732
lfingers 7.12502 -0 0
lthumb 59.971 33.7144 0.0378847
rclavicle 1.83752e-14 1.35174e-14 0
rhumerus -60.7617 41.511 -98.8025
rradius 115.853 -0 0
rwrist -3.43379 0 0
rhand 5.87268 -10.0693 -0.653614
rfingers 7.12502 -0 0
rthumb 31.0641 -36.4605 -0.21333
920
root 2.56721 16.0932 32.5281 2.72861 7.26809 3.85049
lfemur -9.35914 1.34546 -0.203504
ltibia 24.6263 -0 0
lfoot -15.1653 -36.5106 0.238272
ltoes -4.15309 0 0
rfemur -18.5788 -3.59193 -9.90413
rtibia 38.7437 -0 0
rfoot 5.11673 -14.191 -0.404657
rtoes -15.2363 0 0
lowerback -1.1677 0.133852 -2.69866
upperback -0.915099 0.215872 -5.78446
thorax -0.333089 0.0922089 -4.52131
lowerneck -7.19654 -4.08382 -0.714619
upperneck 4.17747 -5.73196 5.57023
head 2.83314 -2.67408 1.65048
lclavicle 1.83752e-14 1.35174e-14 0
lhumerus -52.8286 -36.8277 107.919
lradius 57.9817 -0 0
lwrist 16.2475 0 0
lhand 38.0718 21.6852 0.272277
lfingers 7.12502 -0 0
lthumb 60.6609 33.8503 0.0403716
rclavicle 1.83752e-14 1.35174e-14 0
rhumerus -61.0739 43.5418 -95.5528
rradius 115.461 -0 0
rwrist -4.30703 0 0
rhand 8.94288 -9.56209 -0.879568
rfingers 7.12502 -0 0
rthumb 33.9737 -35.322 -0.425548
921
root 2.48375 16.0466 32.5652 2.99106 6.31783 4.17269
lfemur -7.65129 0.680345 0.0408314
ltibia 21.9006 -0 0
lfoot -16.2204 -36.7133 0.2309
ltoes -5.06886 0 0
rfemur -19.344 -3.58649 -10.2107
rtibia 39.1876 -0 0
rfoot 3.89507 -13.1355 -0.407177
rtoes -19.4821 0 0
lowerback -1.50728 0.0257927 -2.70613
upperback -0.99342 0.0883636 -6.11498
thorax -0.228579 0.0261543 -4.86616
lowerneck -7.22108 -3.64521 -0.466171
upperneck 4.13996 -5.16455 5.535
head 2.7956 -2.38943 1.62326
lclavicle 1.83752e-14 1.35174e-14 0
lhumerus -53.1441 -37.2464 107.702
lradius 57.8945 -0 0
lwrist 17.1046 0 0
lhand 38.8968 22.6634 0.277374
lfingers 7.12502 -0 0
lthumb 61.3504 33.9937 0.0408888
rclavicle 1.83752e-14 1.35174e-14 0
rhumerus -60.9785 45.5206 -91.8338
rradius 114.932 -0 0
rwrist -5.22739 0 0
rhand 11.9871 -9.13843 -1.1047
rfingers 7.12502 -0 0
rthumb 36.8556 -34.2642 -0.667218
922
root 2.40019 15.9995 32.6009 3.2465 5.38696 4.48489
lfemur -5.94659 0.0614126 0.247132
ltibia 19.1844 -0 0
lfoot -17.2966 -36.8132 0.215818
ltoes -6.0153 0 0
rfemur -20.1561 -3.63693 -10.4918
rtibia 39.7531 -0 0
rfoot 2.65119 -12.0426 -0.390198
rtoes -23.7016 0 0
lowerback -1.83606 -0.0903648 -2.71108
upperback -1.06757 -0.0505118 -6.43872
thorax -0.125741 -0.0449132 -5.20466
lowerneck -7.24331 -3.20409 -0.211538
upperneck 4.09871 -4.59406 5.49494
head 2.75647 -2.10342 1.59334
lclavicle 1.83752e-14 1.35174e-14 0
lhumerus -53.4615 -37.6875 107.493
lradius 57.8116 -0 0
lwrist 17.9691 0 0
lhand 39.7073 23.6325 0.268769
lfingers 7.12502 -0 0
lthumb 62.0276 34.1407 0.0394061
rclavicle 1.83752e-14 1.35174e-14 0
rhumerus -60.3704 47.3988 -87.6132
rradius 114.24 -0 0
rwrist -6.17385 0 0
rhand 14.9137 -8.82017 -1.30665
rfingers 7.12502 -0 0
rthumb 39.6231 -33.3264 -0.914014
923
root 2.31737 15.9524 32.6348 3.49354 4.48368 4.78221
lfemur -4.27366 -0.509406 0.421413
ltibia 16.5239 -0 0
lfoot -18.3738 -36.8145 0.194687
ltoes -6.98669 0 0
rfemur -20.9921 -3.73865 -10.7455
rtibia 40.3994 -0 0
rfoot 1.39885 -10.9342 -0.354855
rtoes -27.8193 0 0
lowerback -2.14979 -0.209672 -2.71056
upperback -1.13723 -0.194548 -6.75028
thorax -0.0267003 -0.117894 -5.53291
lowerneck -7.26238 -2.76828 0.0455699
upperneck 4.05286 -4.03053 5.45012
head 2.71586 -1.82116 1.56091
lclavicle 1.83752e-14 1.35174e-14 0
lhumerus -53.778 -38.1407 107.3
lradius 57.7315 -0 0
lwrist 18.8253 0 0
lhand 40.4884 24.5722 0.247273
lfingers 7.12502 -0 0
lthumb 62.6803 34.2877 0.0360472
rclavicle 1.83752e-14 1.35174e-14 0
rhumerus -59.1489 49.1131 -82.8598
rradius 113.36 -0 0
rwrist -7.12537 0 0
rhand 17.6315 -8.6266 -1.46029
rfingers 7.12502 -0 0
rthumb 42.1904 -32.545 -1.13556
924
root 2.23608 15.906 32.6667 3.73103 3.61623 5.0599
lfemur -2.66135 -1.03033 0.570271
ltibia 13.9653 -0 0
lfoot -19.4322 -36.7213 0.169057
ltoes -7.97731 0 0
rfemur -21.8294 -3.88679 -10.97
rtibia 41.086 -0 0
rfoot 0.151739 -9.83237 -0.303741
rtoes -31.7599 0 0
lowerback -2.44419 -0.327154 -2.70174
upperback -1.20222 -0.337526 -7.04426
thorax 0.0663705 -0.189726 -5.847
lowerneck -7.27757 -2.3456 0.301466
upperneck 4.00155 -3.48401 5.40059
head 2.67393 -1.54774 1.52618
lclavicle 1.83752e-14 1.35174e-14 0
lhumerus -54.0911 -38.5955 107.133
lradius 57.6526 -0 0
lwrist 19.6576 0 0
lhand 41.2253 25.4625 0.214698
lfingers 7.12502 -0 0
lthumb 63.2965 34.4306 0.0310851
rclavicle 1.83752e-14 1.35174e-14 0
rhumerus -57.2294 50.5851 -77.555
rradius 112.265 -0 0
rwrist -8.06095 0 0
rhand 20.0491 -8.57489 -1.53908
rfingers 7.12502 -0 0
rthumb 44.4724 -31.9538 -1.29719
925
root 2.15717 15.8608 32.6963 3.95801 2.79288 5.31326
lfemur -1.13872 -1.49982 0.700758
ltibia 11.5546 -0 0
lfoot -20.4519 -36.5378 0.140196
ltoes -8.98142 0 0
rfemur -22.6452 -4.07624 -11.1638
rtibia 41.772 -0 0
rfoot -1.07661 -8.75869 -0.240905
rtoes -35.4478 0 0
lowerback -2.71504 -0.437811 -2.68182
upperback -1.26241 -0.473216 -7.31528
thorax 0.151257 -0.257378 -6.14301
lowerneck -7.28827 -1.94387 0.55248
upperneck 3.94394 -2.96453 5.34645
head 2.63083 -1.28824 1.48937
lclavicle 1.83752e-14 1.35174e-14 0
lhumerus -54.3982 -39.0415 106.998
lradius 57.5733 -0 0
lwrist 20.4504 0 0
lhand 41.9031 26.2831 0.173741
lfingers 7.12502 -0 0
lthumb 63.8641 34.5658 0.0249298
rclavicle 1.83752e-14 1.35174e-14 0
rhumerus -54.562 51.7215 -71.7126
rradius 110.93 -0 0
rwrist -8.95954 0 0
rhand 22.0747 -8.68101 -1.51662
rfingers 7.12502 -0 0
rthumb 46.3843 -31.5845 -1.36209
926
root 2.08143 15.8176 32.7234 4.17366 2.02196 5.5377
lfemur 0.264931 -1.91657 0.820238
ltibia 9.33793 -0 0
lfoot -21.4129 -36.2681 0.108942
ltoes -9.9933 0 0
rfemur -23.4169 -4.30172 -11.3255
rtibia 42.4169 -0 0
rfoot -2.27288 -7.73471 -0.171804
rtoes -38.8077 0 0
lowerback -2.95808 -0.536635 -2.64807
upperback -1.31777 -0.595379 -7.558
thorax 0.225705 -0.317849 -6.417
lowerneck -7.294 -1.57094 0.794952
upperneck 3.87922 -2.48214 5.28776
head 2.58671 -1.04778 1.45069
lclavicle 1.83752e-14 1.35174e-14 0
lhumerus -54.697 -39.468 106.904
lradius 57.4921 -0 0
lwrist 21.1883 0 0
lhand 42.5073 27.0141 0.127811
lfingers 7.12502 -0 0
lthumb 64.3711 34.6894 0.0181075
rclavicle 1.83752e-14 1.35174e-14 0
rhumerus -51.1536 52.4178 -65.4014
rradius 109.33 -0 0
rwrist -9.80014 0 0
rhand 23.6155 -8.96121 -1.36848
rfingers 7.12502 -0 0
rthumb 47.8406 -31.468 -1.29388
927
root 2.00969 15.7768 32.7478 4.37727 1.31184 5.72865
lfemur 1.52017 -2.2795 0.936244
ltibia 7.36144 -0 0
lfoot -22.2954 -35.9164 0.0755662
ltoes -11.0072 0 0
rfemur -24.1219 -4.55788 -11.4543
rtibia 42.9801 -0 0
rfoot -3.42401 -6.78168 -0.103192
rtoes -41.7642 0 0
lowerback -3.16907 -0.618615 -2.5978
upperback -1.36832 -0.697775 -7.76706
thorax 0.287431 -0.368158 -6.66503
lowerneck -7.29439 -1.23465 1.02523
upperneck 3.80661 -2.04689 5.22463
head 2.54174 -0.831434 1.41037
lclavicle 1.83752e-14 1.35174e-14 0
lhumerus -54.9851 -39.8646 106.859
lradius 57.4073 -0 0
lwrist 21.8557 0 0
lhand 43.0233 27.6355 0.0808091
lfingers 7.12502 -0 0
lthumb 64.8054 34.7977 0.011233
rclavicle 1.83752e-14 1.35174e-14 0
rhumerus -47.0878 52.5659 -58.7667
rradius 107.439 -0 0
rwrist -10.5617 0 0
rhand 24.5775 -9.43378 -1.0742
rfingers 7.12502 -0 0
rthumb 48.7542 -31.6371 -1.05962
928
root 1.94278 15.7392 32.7691 4.56821 0.670882 5.88159
lfemur 2.5974 -2.58773 1.05632
ltibia 5.67123 -0 0
lfoot -23.0795 -35.487 0.0396547
ltoes -12.0175 0 0
rfemur -24.7379 -4.83932 -11.5496
rtibia 43.4207 -0 0
rfoot -4.51715 -5.92061 -0.0429741
rtoes -44.2417 0 0
lowerback -3.34376 -0.678754 -2.52835
upperback -1.41411 -0.774159 -7.93711
thorax 0.33413 -0.405334 -6.88314
lowerneck -7.28915 -0.942829 1.23964
upperneck 3.72537 -1.66883 5.1572
head 2.4961 -0.6443 1.36867
lclavicle 1.83752e-14 1.35174e-14 0
lhumerus -55.2601 -40.2204 106.869
lradius 57.3174 -0 0
lwrist 22.4369 0 0
lhand 43.4366 28.1275 0.0368621
lfingers 7.12502 -0 0
lthumb 65.155 34.8868 0.00497252
rclavicle 1.83752e-14 1.35174e-14 0
rhumerus -42.5284 52.0659 -52.0346
rradius 105.231 -0 0
rwrist -11.2232 0 0
rhand 24.8649 -10.1212 -0.619656
rfingers 7.12502 -0 0
rthumb 49.0356 -32.128 -0.633281
929
root 1.8815 15.7053 32.7872 4.74586 0.107493 365.992
lfemur 3.46697 -2.84045 1.18787
ltibia 4.31344 0 0
lfoot -23.7454 -34.9842 0
ltoes -13.0183 0 0
rfemur -25.2423 -5.14073 -11.6115
rtibia 43.6983 0 0
rfoot -5.53967 -5.17222 0
rtoes -46.1648 0 0
lowerback -3.47786 -0.712081 -2.43705
upperback -1.45522 -0.818287 -8.0628
thorax 0.363486 -0.426413 -7.06739
lowerneck -7.27803 -0.703327 1.43451
upperneck 3.63478 -1.35801 5.08564
head 2.44999 -0.491469 1.32583
lclavicle -2.55314e-15 8.11041e-14 0
lhumerus -55.5196 -40.5249 106.943
lradius 57.2208 0 0
lwrist 22.9164 0 0
lhand 43.7329 28.4702 0
lfingers 7.12502 0 0
lthumb 65.4078 34.9531 0
rclavicle -2.55314e-15 8.11041e-14 0
rhumerus -37.6956 50.8388 -45.4906
rradius 102.681 0 0
rwrist -11.7637 0 0
rhand 24.3795 -11.0522 0
rfingers 7.12502 0 0
rthumb 48.5909 -752.984 0
